HIERARCHY
ROOT Hips
{
    OFFSET 0.000000 0.000000 0.000000
    CHANNELS 6 Xposition Yposition Zposition Zrotation Xrotation Yrotation
        JOINT Chest
        {
            OFFSET -0.000000 34.136871 -0.000000
            CHANNELS 3 Zrotation Xrotation Yrotation
            JOINT Neck
            {
                OFFSET -0.000000 25.684828 0.000000
                CHANNELS 3 Zrotation Xrotation Yrotation
                JOINT Head
                {
                    OFFSET -0.000000 11.244446 0.000000
                    CHANNELS 3 Zrotation Xrotation Yrotation
                    End Site
                    {
                        OFFSET -0.000000 17.377779 0.000000
                    }
                }
            }
            JOINT LeftCollar
            {
                OFFSET -0.000000 25.684828 0.000000
                CHANNELS 3 Zrotation Xrotation Yrotation
                JOINT LeftShoulder
                {
                    OFFSET 22.000002 -0.000000 0.000000
                    CHANNELS 3 Zrotation Xrotation Yrotation
                    JOINT LeftElbow
                    {
                        OFFSET 28.873522 0.000000 0.000000
                        CHANNELS 3 Zrotation Xrotation Yrotation
                        JOINT LeftWrist
                        {
                            OFFSET 21.914822 0.000000 0.000000
                            CHANNELS 3 Zrotation Xrotation Yrotation
                            End Site
                            {
                                OFFSET 15.333338 0.000000 0.000000
                            }
                        }
                    }
                }
            }
            JOINT RightCollar
            {
                OFFSET -0.000000 25.684828 0.000000
                CHANNELS 3 Zrotation Xrotation Yrotation
                JOINT RightShoulder
                {
                    OFFSET -22.000002 0.000000 0.000000
                    CHANNELS 3 Zrotation Xrotation Yrotation
                    JOINT RightElbow
                    {
                        OFFSET -28.873522 0.000000 0.000000
                        CHANNELS 3 Zrotation Xrotation Yrotation
                        JOINT RightWrist
                        {
                            OFFSET -21.914822 0.000000 0.000000
                            CHANNELS 3 Zrotation Xrotation Yrotation
                            End Site
                            {
                                OFFSET -15.333338 0.000000 0.000000
                            }
                        }
                    }
                }
            }
        }
    JOINT LeftHip
    {
        OFFSET 12.266668 0.000000 0.000000
        CHANNELS 3 Zrotation Xrotation Yrotation
        JOINT LeftKnee
        {
            OFFSET -0.000000 -43.289558 0.000000
            CHANNELS 3 Zrotation Xrotation Yrotation
            JOINT LeftAnkle
            {
                OFFSET -0.000000 -38.945736 0.000000
                CHANNELS 3 Zrotation Xrotation Yrotation
                End Site
                {
                    OFFSET -0.000000 -5.111114 17.377779
                }
            }
        }
    }
    JOINT RightHip
    {
        OFFSET -12.266668 0.000000 0.000000
        CHANNELS 3 Zrotation Xrotation Yrotation
        JOINT RightKnee
        {
            OFFSET -0.000000 -43.289558 0.000000
            CHANNELS 3 Zrotation Xrotation Yrotation
            JOINT RightAnkle
            {
                OFFSET -0.000000 -38.945736 0.000000
                CHANNELS 3 Zrotation Xrotation Yrotation
                End Site
                {
                    OFFSET -0.000000 -5.111114 17.377779
                }
            }
        }
    }
}
MOTION
Frames:    8
Frame Time:    0.010000
1.278610    92.351204    51.275398    -0.385561    -3.810395    -0.451471    -0.082206    10.785368    -2.028012    1.798759    10.756202    0.863099    -1.333594    2.898373    1.010114    -13.020836    -1.134188    9.914067    -0.311274    0.772139    0.165269    26.657522    -6.691400    -27.721636    -4.122136    -3.281650    -0.482590    15.365466    -1.096980    -8.118546    3.923257    2.090787    1.421639    -27.394321    -9.812379    38.661312    2.553214    1.323606    3.456230    -7.645212    -2.513456    4.938863    7.139747    28.155874    -3.116062    0.492032    -15.052594    21.127848    0.732604    1.274901    -4.524122    -6.406490    20.957235    -0.682357    4.243463    -11.208052    -24.435814    
1.278610    92.351204    51.275398    -0.385778    -3.810069    -0.450995    -0.065919    10.768537    -2.028350    0.524908    11.418547    1.402412    -0.165422    2.047290    1.462573    -13.203272    -1.228254    11.032296    -0.271189    0.402516    -0.091823    26.474932    -6.650683    -27.809816    -4.013968    -3.108644    -0.279749    15.303617    -1.022428    -7.259546    3.634172    2.350684    1.631222    -27.317184    -9.707742    38.617085    2.580272    1.299922    3.460012    -7.632804    -2.552484    4.764856    7.028439    28.264973    -3.019047    0.509796    -15.058194    21.233829    0.743553    1.224215    -4.552485    -6.447872    21.092203    -0.266246    4.916245    -11.523330    -24.307724    
1.303332    92.208168    51.136814    -0.552316    -3.993007    -0.507476    0.002103    11.327411    -2.258250    0.820207    11.339333    1.511150    -0.467646    1.765958    1.602220    -12.973987    -1.228480    11.107135    -0.581424    0.316175    -0.026457    26.525286    -6.677150    -27.966709    -4.034391    -3.348770    -0.237146    15.863284    -1.050313    -7.502656    2.947221    2.748759    2.239761    -27.467964    -9.718336    38.103260    2.289612    0.667592    3.546917    -7.505379    -2.812344    4.996581    7.247910    28.912716    -2.855745    0.452864    -15.381466    20.880041    0.986656    0.766364    -4.746698    -6.889744    22.094698    -0.001558    5.925992    -12.505434    -24.670900    
1.325059    92.141052    51.038681    -0.615359    -4.072184    -0.565182    0.016120    11.603463    -2.325875    0.790753    11.626351    1.594946    -0.396678    1.210330    1.680414    -12.911723    -1.261236    11.316647    -0.672601    0.274739    -0.120590    26.473282    -6.708955    -28.072044    -3.953009    -3.411862    -0.081055    16.098129    -1.081324    -7.544281    2.632871    3.027459    2.541350    -27.603252    -9.710243    37.886742    2.124742    0.217428    3.581187    -7.458131    -3.014266    5.005403    7.273754    29.331251    -2.677578    0.419890    -15.505955    20.765079    1.067547    0.436342    -4.690126    -7.035550    22.739426    0.047957    6.221415    -12.758000    -24.666481    
1.355034    92.064507    50.913002    -0.674091    -4.164220    -0.643799    0.018188    11.922006    -2.376106    0.833723    11.971079    1.633637    -0.366943    0.572275    1.724363    -12.847412    -1.293403    11.470386    -0.764572    0.290807    -0.208072    26.455627    -6.744445    -28.176086    -3.902409    -3.510796    0.055702    16.333471    -1.112568    -7.583356    2.348018    3.241935    2.697809    -27.653402    -9.687307    37.880878    1.877783    -0.216162    3.564538    -7.418201    -3.263393    5.015790    7.294544    29.829756    -2.481514    0.382968    -15.624359    20.648136    1.138923    0.020628    -4.549160    -7.168621    23.537006    0.057310    6.404995    -12.938747    -24.667717    
1.392369    91.981163    50.764339    -0.720574    -4.268202    -0.738776    0.001780    12.275224    -2.407634    0.877372    12.314275    1.661230    -0.320846    -0.060679    1.753941    -12.793957    -1.322875    11.601830    -0.866673    0.340350    -0.263777    26.489088    -6.784735    -28.279968    -3.866384    -3.648612    0.178374    16.554159    -1.107290    -7.538094    2.103720    3.332231    2.649864    -27.571461    -9.685676    38.142101    1.555588    -0.554021    3.487224    -7.393686    -3.551656    5.046743    7.323551    30.394630    -2.333780    0.349882    -15.726325    20.567633    1.193086    -0.464931    -4.330934    -7.282835    24.464884    0.067737    6.468215    -13.049411    -24.708364    
1.434319    91.893112    50.598080    -0.752041    -4.382305    -0.843868    -0.032991    12.658679    -2.427402    0.901060    12.594969    1.677908    -0.240689    -0.611711    1.777403    -12.757580    -1.315376    11.703552    -0.984860    0.366809    -0.263729    26.550657    -6.840193    -28.412758    -3.831703    -3.765003    0.289616    16.756643    -1.089233    -7.408396    1.903417    3.323790    2.421014    -27.442015    -9.691710    38.590206    1.274674    -0.814388    3.436104    -7.385645    -3.873758    5.119298    7.376237    31.016314    -2.295465    0.324724    -15.807765    20.554686    1.230105    -1.000268    -4.053021    -7.376994    25.490566    0.101817    6.418983    -13.094253    -24.798239    
1.476549    91.802017    50.418842    -0.773287    -4.502842    -0.953087    -0.077369    13.068193    -2.445325    0.898547    12.786699    1.695448    -0.137197    -1.058863    1.794503    -12.723525    -1.328506    11.772572    -1.145890    0.409693    -0.220981    26.738564    -6.896270    -28.485014    -3.859992    -3.917728    0.322850    16.943365    -1.085010    -7.233046    1.735309    3.283088    2.084349    -27.283422    -9.736156    39.150528    1.030487    -0.999073    3.401107    -7.384999    -4.228061    5.250260    7.464864    31.689201    -2.407082    0.307660    -15.871365    20.623133    1.258760    -1.564127    -3.728849    -7.447772    26.572992    0.135503    6.286183    -13.077858    -24.913694    
